<svg xmlns="http://www.w3.org/2000/svg" width="132" height="11" viewBox="0 0 132 11"><g><g><path fill="#fff" d="M4.92 4.728c-.56.517-1.266.776-2.12.776h-.375c-.14 0-.295-.007-.464-.02l-.249 2.11.957.141-.04.425H-.02l.043-.42.723-.146.786-6.299-.65-.112.06-.494h1.235L3.567.606c1.468 0 2.212.635 2.232 1.905v.083c0 .882-.293 1.593-.88 2.134zm-2.886.122c1.498.253 2.376-.168 2.637-1.265.075-.316.112-.62.112-.91 0-.292-.018-.524-.054-.697-.117-.527-.519-.79-1.206-.79-.319 0-.66.034-1.025.102zm9.133 3.086c-.315.214-.602.322-.859.322-.423 0-.623-.213-.6-.64.016-.28.054-.586.114-.918.06-.332.103-.568.127-.708.025-.14.053-.294.086-.461.032-.168.061-.34.088-.515.065-.397.097-.709.097-.933 0-.225-.015-.387-.044-.488a.53.53 0 0 0-.122-.23c-.078-.075-.194-.112-.349-.112-.155 0-.305.032-.452.095-.146.064-.293.15-.44.262a3.698 3.698 0 0 0-.834.888L7.49 8.16h-.948L7.486.924 6.91.714l.083-.405L8.29.104l.254.131-.464 3.477c.43-.576.912-.955 1.446-1.138.185-.062.368-.093.55-.093.18 0 .338.026.473.076a.79.79 0 0 1 .344.252c.202.24.303.623.303 1.147 0 .29-.036.619-.108.986l-.141.752-.127.777c-.088.553-.12.883-.095.991.024.107.059.161.105.161.113 0 .288-.09.522-.273l.151.254a1.13 1.13 0 0 1-.337.332zm2.483.17c-.742-.315-1.113-1.041-1.113-2.177 0-.87.252-1.65.757-2.344.335-.459.747-.78 1.235-.962.244-.094.512-.142.803-.142.292 0 .556.05.794.152.237.1.44.247.605.44.342.4.513.968.513 1.703 0 .902-.252 1.695-.757 2.378a2.777 2.777 0 0 1-1.24.967 2.279 2.279 0 0 1-.803.137c-.292 0-.556-.05-.794-.152zm-.102-2.173c0 .84.208 1.378.625 1.612a.921.921 0 0 0 .473.117c.183 0 .35-.043.5-.13.152-.085.287-.203.406-.351a2.37 2.37 0 0 0 .31-.515c.241-.55.361-1.17.361-1.86 0-.84-.208-1.379-.625-1.616a.95.95 0 0 0-.473-.113.994.994 0 0 0-.5.13 1.42 1.42 0 0 0-.406.351 2.38 2.38 0 0 0-.31.515c-.24.55-.361 1.17-.361 1.86zm6.306 2.257a1.523 1.523 0 0 1-.435.068c-.596 0-.893-.291-.893-.874V7.33c0-.1.02-.3.058-.596l.444-3.535h-.585l.097-.425.6-.229c.186-.221.403-.654.65-1.299h.464l-.166 1.275h1.28l-.098.678h-1.265L19.6 6.256a7.05 7.05 0 0 0-.083.798c0 .139.005.237.017.296a.279.279 0 0 0 .061.136c.052.062.136.093.251.093.116 0 .218-.014.306-.041a2.758 2.758 0 0 0 .713-.369l.087.38c-.221.271-.587.484-1.098.64zm3.166-.084c-.742-.315-1.113-1.041-1.113-2.177 0-.87.252-1.65.757-2.344.335-.459.747-.78 1.235-.962.244-.094.512-.142.803-.142.292 0 .556.05.794.152.237.1.44.247.605.44.342.4.513.968.513 1.703 0 .902-.252 1.695-.757 2.378a2.777 2.777 0 0 1-1.24.967 2.279 2.279 0 0 1-.803.137c-.292 0-.556-.05-.794-.152zm-.102-2.173c0 .84.208 1.378.625 1.612a.921.921 0 0 0 .473.117c.182 0 .35-.043.5-.13.152-.085.287-.203.406-.351.119-.148.222-.32.31-.515.24-.55.361-1.17.361-1.86 0-.84-.208-1.379-.625-1.616a.95.95 0 0 0-.473-.113.994.994 0 0 0-.5.13 1.42 1.42 0 0 0-.406.351c-.119.148-.222.32-.31.515-.241.55-.361 1.17-.361 1.86zm4.626 1.3c.221.152.517.263.889.332.133.022.262.034.388.034.125 0 .245-.007.359-.02a.945.945 0 0 0 .317-.093c.218-.107.327-.304.327-.59 0-.336-.18-.65-.542-.943a7.323 7.323 0 0 0-.3-.232 4.04 4.04 0 0 1-.32-.263 2.74 2.74 0 0 1-.337-.37c-.254-.338-.38-.654-.38-.949 0-.294.05-.54.153-.735.103-.195.24-.361.413-.498.361-.283.799-.425 1.313-.425.384 0 .679.026.884.076.205.05.327.086.366.105l-.185.815c-.085-.123-.313-.229-.684-.317a1.6 1.6 0 0 0-.388-.049c-.129 0-.243.01-.344.03a.826.826 0 0 0-.279.107c-.218.134-.327.345-.327.635 0 .358.259.734.777 1.128.332.257.564.47.698.64.263.341.395.666.395.974 0 .307-.053.558-.158.752a1.459 1.459 0 0 1-.428.485c-.358.264-.807.396-1.347.396-.482 0-.889-.06-1.221-.18a.71.71 0 0 1-.215-.108zm9.167.703c-.315.214-.602.322-.859.322-.423 0-.623-.213-.6-.64a7.67 7.67 0 0 1 .114-.918c.06-.332.103-.568.127-.708.025-.14.053-.294.086-.461.032-.168.061-.34.087-.515.066-.397.098-.709.098-.933 0-.225-.015-.387-.044-.488a.53.53 0 0 0-.122-.23c-.078-.075-.194-.112-.349-.112-.155 0-.305.032-.452.095-.146.064-.293.15-.44.262a3.698 3.698 0 0 0-.834.888l-.488 3.662h-.948L33.03.924l-.576-.21.083-.405 1.298-.205.254.131-.464 3.477c.43-.576.912-.955 1.446-1.138.185-.062.368-.093.549-.093.18 0 .339.026.474.076a.79.79 0 0 1 .344.252c.202.24.303.623.303 1.147 0 .29-.036.619-.108.986l-.141.752-.127.777c-.088.553-.12.883-.095.991.024.107.059.161.104.161.114 0 .289-.09.523-.273l.151.254a1.13 1.13 0 0 1-.337.332zm2.483.17c-.742-.315-1.113-1.041-1.113-2.177 0-.87.252-1.65.757-2.344.335-.459.747-.78 1.235-.962.244-.094.512-.142.803-.142.292 0 .556.05.794.152.237.1.44.247.605.44.342.4.513.968.513 1.703 0 .902-.252 1.695-.757 2.378a2.777 2.777 0 0 1-1.24.967 2.279 2.279 0 0 1-.803.137c-.292 0-.556-.05-.794-.152zm-.102-2.173c0 .84.208 1.378.625 1.612a.921.921 0 0 0 .473.117c.182 0 .35-.043.5-.13.152-.085.287-.203.406-.351.119-.148.222-.32.31-.515.24-.55.361-1.17.361-1.86 0-.84-.208-1.379-.625-1.616a.95.95 0 0 0-.473-.113.994.994 0 0 0-.5.13 1.42 1.42 0 0 0-.406.351c-.119.148-.222.32-.31.515-.241.55-.361 1.17-.361 1.86zm8.66 1.055c-.375.524-.834.892-1.378 1.104a2.24 2.24 0 0 1-.815.166c-.26 0-.513-.026-.757-.078l-.347 2.52h-.927l.99-7.33-.531-.249.087-.386 1.28-.254.23.118-.089.6c.397-.478.87-.718 1.416-.718.547 0 .965.2 1.255.601.27.374.406.879.406 1.514 0 .833-.274 1.63-.82 2.392zm-2.852.503c.169.117.386.176.651.176.266 0 .491-.046.677-.14.185-.092.35-.217.495-.375a2.51 2.51 0 0 0 .376-.542c.106-.204.193-.416.262-.637.14-.443.21-.892.21-1.345 0-.455-.074-.81-.22-1.065-.147-.255-.347-.383-.6-.383-.375 0-.745.18-1.11.542a2.336 2.336 0 0 0-.258.293zm7.416-6.201l-.6-.107.058-.494h2.276l-.054.494-.762.088.577 4.76.175 1.299.274-.967 1.684-4.497-.068-.59-.576-.093.054-.494h2.324l-.098.494-.732.097.512 4.751.088 1.299.362-1.113 1.987-4.922-.64-.112.054-.494h2.06l-.073.494-.586.107-2.915 6.919h-.986l-.566-5.03-1.89 5.03h-.982zm9.856 5.996c.183.195.41.293.684.293.596 0 1.149-.237 1.66-.713l.225.406c-.163.234-.414.445-.752.634-.407.235-.804.352-1.19.352-.385 0-.702-.062-.949-.186-.488-.24-.81-.64-.967-1.196a2.327 2.327 0 0 1-.097-.571c0-.14.002-.293.007-.457.005-.164.042-.395.112-.69.07-.297.167-.578.29-.843.124-.265.272-.51.443-.735.17-.224.362-.418.573-.58.45-.346.935-.519 1.455-.519.677 0 1.11.246 1.3.738.058.15.087.33.087.542 0 .212-.058.42-.176.627-.117.207-.27.392-.459.554a3.088 3.088 0 0 1-.64.423 5.198 5.198 0 0 1-.717.295c-.485.163-.903.248-1.255.254-.006.068-.01.132-.01.19 0 .059.002.129.005.21a1.986 1.986 0 0 0 .17.667c.053.116.12.217.201.305zm-.107-2.876a4.444 4.444 0 0 0-.235.967c.476-.023.944-.17 1.407-.44.328-.188.563-.42.703-.693.075-.14.112-.316.112-.527 0-.212-.057-.375-.17-.491a.582.582 0 0 0-.433-.173.965.965 0 0 0-.471.115c-.14.076-.266.178-.379.305a2.394 2.394 0 0 0-.302.434c-.09.163-.167.33-.232.503zm8.083 2.578c-.605.847-1.382 1.27-2.329 1.27-.351 0-.729-.074-1.133-.22l-.478.22.967-7.344-.464-.21.102-.41 1.172-.19.25.131-.411 3.052c.283-.364.625-.61 1.025-.737.144-.046.327-.069.55-.069.223 0 .438.054.647.159.208.106.38.253.517.442.27.374.406.879.406 1.514 0 .833-.274 1.63-.82 2.392zm-2.886.474c.173.137.397.205.672.205s.505-.046.69-.14c.186-.092.352-.217.496-.375.145-.158.27-.339.376-.542a4.436 4.436 0 0 0 .471-1.982c0-.455-.073-.81-.22-1.065-.146-.255-.346-.383-.6-.383-.273 0-.555.106-.844.317-.241.176-.438.381-.591.615zm4.617-.23c.221.153.518.264.889.333.133.022.263.034.388.034s.245-.007.359-.02a.945.945 0 0 0 .317-.093c.218-.107.327-.304.327-.59 0-.336-.18-.65-.542-.943a7.323 7.323 0 0 0-.3-.232 4.04 4.04 0 0 1-.32-.263 2.74 2.74 0 0 1-.337-.37c-.253-.338-.38-.654-.38-.949 0-.294.05-.54.153-.735.103-.195.24-.361.413-.498.361-.283.799-.425 1.313-.425.384 0 .68.026.884.076.205.05.327.086.366.105l-.185.815c-.085-.123-.313-.229-.684-.317a1.6 1.6 0 0 0-.388-.049c-.129 0-.243.01-.344.03a.826.826 0 0 0-.278.107c-.219.134-.328.345-.328.635 0 .358.26.734.777 1.128.332.257.564.47.698.64.264.341.395.666.395.974 0 .307-.052.558-.158.752a1.459 1.459 0 0 1-.427.485c-.359.264-.808.396-1.348.396-.482 0-.889-.06-1.22-.18a.71.71 0 0 1-.216-.108zm6.58-6.064a.695.695 0 0 1-.498.215.56.56 0 0 1-.235-.049.518.518 0 0 1-.337-.513c0-.195.08-.366.24-.512.15-.14.288-.21.415-.21s.227.014.302.044c.228.094.342.258.342.493a.742.742 0 0 1-.23.532zm-.801 7.002a1.032 1.032 0 0 1-.42.088c-.404 0-.606-.186-.606-.557 0-.221.054-.667.162-1.338l.454-2.988-.723-.249.088-.396 1.475-.249.239.118-.679 4.648c-.01.062-.015.116-.015.161 0 .14.041.21.122.21.12 0 .295-.109.523-.327l.156.259c-.163.254-.421.46-.776.62zm3.474.02a1.523 1.523 0 0 1-.435.068c-.595 0-.893-.291-.893-.874V7.33c0-.1.02-.3.058-.596l.445-3.535h-.586l.097-.425.601-.229c.185-.221.402-.654.65-1.299h.463l-.166 1.275h1.28l-.098.678h-1.265l-.405 3.057c-.055.394-.083.66-.083.798 0 .139.006.237.017.296a.28.28 0 0 0 .061.136c.052.062.136.093.252.093.115 0 .217-.014.305-.041a2.757 2.757 0 0 0 .713-.369l.088.38c-.222.271-.588.484-1.1.64zm3.435-.904c.182.195.41.293.683.293.596 0 1.15-.237 1.66-.713l.225.406c-.163.234-.413.445-.752.634-.407.235-.803.352-1.189.352s-.702-.062-.95-.186c-.488-.24-.81-.64-.966-1.196a2.332 2.332 0 0 1-.098-.571c0-.14.003-.293.007-.457.005-.164.043-.395.113-.69.07-.297.166-.578.29-.843.124-.265.271-.51.442-.735.171-.224.362-.418.574-.58.45-.346.934-.519 1.455-.519.677 0 1.11.246 1.299.738.058.15.088.33.088.542 0 .212-.059.42-.176.627-.117.207-.27.392-.46.554a3.088 3.088 0 0 1-.639.423 5.194 5.194 0 0 1-.718.295c-.485.163-.903.248-1.254.254a1.99 1.99 0 0 0-.01.19c0 .059.001.129.005.21.003.082.02.185.049.308.029.124.07.243.122.36.052.115.118.216.2.304zm-.108-2.876a4.444 4.444 0 0 0-.234.967c.475-.023.944-.17 1.406-.44.329-.188.563-.42.703-.693.075-.14.113-.316.113-.527 0-.212-.057-.375-.171-.491a.582.582 0 0 0-.432-.173.965.965 0 0 0-.472.115c-.14.076-.266.178-.378.305a2.39 2.39 0 0 0-.303.434 3.87 3.87 0 0 0-.232.503zm8.062 3.78a1.523 1.523 0 0 1-.435.068c-.596 0-.893-.291-.893-.874V7.33c0-.1.02-.3.058-.596l.445-3.535h-.586l.097-.425.6-.229c.186-.221.403-.654.65-1.299h.464l-.166 1.275h1.28l-.098.678h-1.265l-.405 3.057c-.056.394-.083.66-.083.798 0 .139.005.237.017.296a.28.28 0 0 0 .06.136c.053.062.137.093.252.093.116 0 .218-.014.306-.041a2.757 2.757 0 0 0 .713-.369l.087.38c-.221.271-.587.484-1.098.64zm3.435-.904c.182.195.41.293.683.293.596 0 1.15-.237 1.66-.713l.225.406c-.163.234-.413.445-.752.634-.407.235-.803.352-1.189.352s-.702-.062-.95-.186c-.488-.24-.81-.64-.966-1.196a2.332 2.332 0 0 1-.098-.571c0-.14.002-.293.007-.457.005-.164.043-.395.113-.69.07-.297.166-.578.29-.843.124-.265.271-.51.442-.735.17-.224.362-.418.574-.58.449-.346.934-.519 1.455-.519.677 0 1.11.246 1.299.738.058.15.088.33.088.542 0 .212-.059.42-.176.627-.117.207-.27.392-.46.554a3.088 3.088 0 0 1-.639.423 5.194 5.194 0 0 1-.718.295c-.485.163-.903.248-1.255.254a1.99 1.99 0 0 0-.01.19c0 .059.002.129.006.21a1.978 1.978 0 0 0 .17.667c.052.116.12.217.2.305zm-.108-2.876a4.444 4.444 0 0 0-.234.967c.475-.023.944-.17 1.406-.44.329-.188.563-.42.703-.693.075-.14.113-.316.113-.527 0-.212-.057-.375-.171-.491a.582.582 0 0 0-.432-.173.965.965 0 0 0-.472.115c-.14.076-.266.178-.378.305a2.39 2.39 0 0 0-.303.434 3.87 3.87 0 0 0-.232.503zm11.863 3.496c-.303.235-.583.352-.84.352-.387 0-.58-.19-.58-.572 0-.273.038-.664.116-1.171l.161-1.001c.108-.671.162-1.132.162-1.385 0-.252-.014-.429-.042-.53a.537.537 0 0 0-.11-.224c-.068-.075-.173-.112-.315-.112a.985.985 0 0 0-.415.093 2.14 2.14 0 0 0-.412.254 3.909 3.909 0 0 0-.787.849c-.029.355-.08.767-.151 1.235l-.312 2.466h-.962l.273-2.163.073-.464c.085-.592.127-1.038.127-1.338 0-.3-.011-.5-.034-.6a.52.52 0 0 0-.102-.23c-.069-.075-.183-.112-.342-.112-.16 0-.312.03-.457.093a2.09 2.09 0 0 0-.437.258c-.31.235-.587.525-.835.87l-.498 3.686h-.952l.635-4.702-.484-.288.088-.435 1.182-.254.234.118-.092 1.035c.432-.53.916-.884 1.45-1.06.179-.062.352-.093.52-.093.167 0 .314.022.44.064a.8.8 0 0 1 .324.205c.185.192.295.505.327.938.426-.56.892-.931 1.397-1.114.175-.062.349-.093.52-.093.17 0 .323.028.459.083a.872.872 0 0 1 .349.264c.208.25.312.627.312 1.128 0 .257-.032.575-.097.952-.2 1.214-.306 1.937-.32 2.168-.015.231-.016.38-.003.444.013.066.043.098.088.098.12 0 .298-.107.532-.322l.152.254a1.402 1.402 0 0 1-.342.356zm5.373-.918c-.374.524-.833.892-1.377 1.104a2.24 2.24 0 0 1-.815.166c-.26 0-.513-.026-.757-.078l-.346 2.52h-.928l.991-7.33-.532-.249.088-.386 1.279-.254.23.118-.088.6c.397-.478.869-.718 1.416-.718.546 0 .965.2 1.254.601.27.374.406.879.406 1.514 0 .833-.274 1.63-.82 2.392zm-2.851.503c.169.117.386.176.652.176a1.5 1.5 0 0 0 .676-.14c.186-.092.35-.217.496-.375.144-.158.27-.339.376-.542a4.439 4.439 0 0 0 .471-1.982c0-.455-.074-.81-.22-1.065-.146-.255-.347-.383-.6-.383-.375 0-.744.18-1.109.542-.1.097-.187.195-.259.293zm5.852-.244c-.036.248-.002.371.102.371.12 0 .297-.107.528-.322l.151.254a1.194 1.194 0 0 1-.327.351c-.316.238-.585.357-.808.357-.223 0-.38-.05-.469-.152-.09-.1-.134-.27-.134-.507 0-.127.01-.253.029-.376l.898-6.3-.6-.21.102-.404 1.28-.205.234.131zm4.914.249c-.423.508-.92.762-1.489.762-.527 0-.933-.199-1.216-.596-.264-.371-.395-.876-.395-1.514 0-.524.125-1.064.376-1.62.416-.932 1.035-1.557 1.855-1.876.286-.114.59-.17.908-.17.32 0 .65.056.992.17l.58-.166-.64 4.761c-.015.134-.005.229.033.286a.181.181 0 0 0 .16.085c.07 0 .198-.075.384-.224l.151.258a.96.96 0 0 1-.297.303c-.29.202-.554.303-.791.303-.414 0-.62-.197-.62-.59v-.07zm.557-4.258c-.153-.107-.357-.16-.61-.16-.254 0-.477.045-.667.136-.19.09-.36.213-.51.366-.15.153-.28.33-.388.53-.11.2-.2.41-.271.627-.14.427-.21.808-.21 1.145 0 .337.017.601.053.791.036.19.088.351.157.481.14.274.333.41.58.41.417 0 .805-.185 1.163-.556.1-.104.185-.205.254-.303zm3.825 4.952a1.523 1.523 0 0 1-.434.068c-.596 0-.894-.291-.894-.874V7.33c0-.1.02-.3.059-.596l.444-3.535h-.586l.098-.425.6-.229c.186-.221.403-.654.65-1.299h.464l-.166 1.275h1.28l-.098.678h-1.265l-.405 3.057c-.056.394-.083.66-.083.798 0 .139.005.237.017.296a.28.28 0 0 0 .06.136c.053.062.137.093.252.093.116 0 .217-.014.305-.041a2.757 2.757 0 0 0 .713-.369l.088.38c-.221.271-.588.484-1.099.64zm3.435-.904c.183.195.41.293.684.293.596 0 1.15-.237 1.66-.713l.225.406c-.163.234-.414.445-.752.634-.407.235-.803.352-1.19.352-.385 0-.702-.062-.949-.186-.488-.24-.81-.64-.967-1.196a2.332 2.332 0 0 1-.097-.571c0-.14.002-.293.007-.457.005-.164.042-.395.112-.69.07-.297.167-.578.29-.843.125-.265.272-.51.443-.735.17-.224.362-.418.573-.58.45-.346.935-.519 1.456-.519.677 0 1.11.246 1.298.738.059.15.088.33.088.542 0 .212-.058.42-.175.627-.118.207-.27.392-.46.554a3.088 3.088 0 0 1-.64.423 5.194 5.194 0 0 1-.717.295c-.485.163-.903.248-1.255.254-.006.068-.01.132-.01.19 0 .059.002.129.005.21.004.082.02.185.05.308.028.124.07.243.121.36.052.115.119.216.2.304zm-.107-2.876a4.444 4.444 0 0 0-.234.967c.475-.023.944-.17 1.406-.44.329-.188.563-.42.703-.693.075-.14.112-.316.112-.527 0-.212-.057-.375-.17-.491a.582.582 0 0 0-.433-.173.965.965 0 0 0-.47.115c-.14.076-.267.178-.38.305a2.395 2.395 0 0 0-.302.434c-.09.163-.167.33-.232.503z"/></g></g></svg>