<svg xmlns="http://www.w3.org/2000/svg" width="41" height="20" viewBox="0 0 41 20"><g><g><path fill="#e7526b" d="M7.094 1.227C7.977.383 9.062-.04 10.352-.04c2.023 0 3.3.973 3.832 2.918.171.633.257 1.459.257 2.478 0 1.02-.187 2.063-.562 3.13-.375 1.066-.906 1.994-1.594 2.783-1.484 1.703-3.398 2.554-5.742 2.554-.406 0-.8-.035-1.184-.105l-.832 5.965H.801L3.145 2.082l-1.372-.586.223-.925 4.606-.61.609.281zM5.606 12.03c.288.11.732.165 1.33.165.597 0 1.12-.206 1.57-.616.449-.41.81-.95 1.084-1.623.531-1.281.797-2.918.797-4.91 0-1.383-.313-2.313-.938-2.79-.21-.163-.492-.245-.844-.245-.609 0-1.195.379-1.757 1.136zm16.652-.304c1.39 0 2.555-.61 3.492-1.828l.75 1.207c-.727 1.132-1.883 1.945-3.469 2.437a6.582 6.582 0 0 1-1.945.281c-.688 0-1.28-.068-1.775-.205a4.857 4.857 0 0 1-1.319-.568 3.9 3.9 0 0 1-.972-.861 4.849 4.849 0 0 1-.657-1.084c-.336-.766-.504-1.618-.504-2.555v-.07c0-2.446.73-4.477 2.192-6.094C19.496.77 21.3-.04 23.465-.04c1.875 0 3.074.59 3.598 1.77.171.398.257.863.257 1.394 0 .532-.101 1.043-.304 1.535a4.226 4.226 0 0 1-.868 1.324c-.375.391-.81.73-1.306 1.014a8.364 8.364 0 0 1-1.565.697 10.6 10.6 0 0 1-3.21.563c0 1.219.195 2.102.585 2.648.39.547.926.82 1.606.82zm.34-10.149c-1.461 0-2.305 1.758-2.532 5.274.828-.055 1.594-.383 2.297-.985.797-.687 1.196-1.574 1.196-2.66s-.32-1.629-.961-1.629zm14.52 8.508c.28.57.524.948.732 1.13.207.184.42.276.638.276.219 0 .54-.148.961-.445l.528.984c-.415.649-1.22 1.168-2.415 1.559-.476.156-1.019.234-1.628.234-1.094 0-1.79-.41-2.086-1.23l-1.16-3.375-2.731 4.371h-3.691l5.425-6.879-1.933-3.68-.2-.34c-.234-.421-.472-.632-.714-.632-.375 0-.688.074-.938.222l-.457-.984c.375-.484 1.11-.871 2.203-1.16.414-.118.907-.176 1.477-.176 1.203 0 1.934.41 2.191 1.23l.996 2.954 2.602-4.09h3.574L35.254 6.71z"/></g></g></svg>